<svg xmlns="http://www.w3.org/2000/svg" width="900" height="230" viewBox="0 0 900 230"><defs><radialGradient id="b" cx="30%" cy="20%"><stop stop-color="#fff" stop-opacity=".9"/><stop offset=".2" stop-color="#9efff2" stop-opacity=".6"/><stop offset=".48" stop-color="#b48cff" stop-opacity=".5"/><stop offset=".75" stop-color="#ff6dcf" stop-opacity=".48"/><stop offset="1" stop-color="#385e7b" stop-opacity=".7"/></radialGradient><filter id="s"><feDropShadow dx="0" dy="8" stdDeviation="8" flood-opacity=".3"/></filter></defs><path d="M85 55Q95 20 135 31q55-27 98 4 57-28 103 2 62-31 111 2 60-33 115 0 53-28 101 1 53-25 100 9 39-8 53 30l-10 84q-5 37-44 34l-650 2q-39 0-43-35z" fill="url(#b)" stroke="#e8ffff" stroke-width="3" filter="url(#s)"/><g fill="url(#b)" stroke="#fff" stroke-opacity=".8" stroke-width="2"><circle cx="180" cy="111" r="39"/><circle cx="290" cy="111" r="39"/><circle cx="610" cy="111" r="39"/><circle cx="720" cy="111" r="39"/></g><g font-family="monospace" text-anchor="middle" fill="#17313b" font-weight="bold"><text x="180" y="116">YES</text><text x="290" y="116">MORE</text><text x="450" y="105" font-size="24">SOFT CONTROL SURFACE</text><text x="450" y="130" font-size="10" letter-spacing="3">PRESS FIRMLY INTO THE DOCUMENT</text><text x="610" y="116">WEIRD</text><text x="720" y="116">♡</text></g></svg>