<svg xmlns="http://www.w3.org/2000/svg" width="1200" height="360" viewBox="0 0 1200 360"><defs><linearGradient id="s" x2="0" y2="1"><stop stop-color="#ff3dc8"/><stop offset=".2" stop-color="#ff6847"/><stop offset=".4" stop-color="#ffd53c"/><stop offset=".6" stop-color="#56ef8f"/><stop offset=".8" stop-color="#3fe4ef"/><stop offset="1" stop-color="#8a61ff"/></linearGradient><linearGradient id="m"><stop stop-color="#17212a"/><stop offset=".5" stop-color="#31404a"/><stop offset="1" stop-color="#11161e"/></linearGradient></defs><rect x="20" y="18" width="1160" height="324" rx="24" fill="#080b11" stroke="#34424c"/><g font-family="monospace"><text x="600" y="48" fill="#8195a3" font-size="10" letter-spacing="5" text-anchor="middle">TABLE SIDECAR // ROW IDENTITY HARDWARE // NATIVE CELLS REMAIN NATIVE</text></g><g stroke="#b8dce0" stroke-width="2"><path d="M70 75h115v54H92l-22-16z" fill="#341226"/><path d="M70 139h115v54H92l-22-16z" fill="#362312"/><path d="M70 203h115v54H92l-22-16z" fill="#10302d"/><path d="M70 267h115v54H92l-22-16z" fill="#17234b"/></g><g fill="url(#s)"><circle cx="105" cy="102" r="11"/><circle cx="105" cy="166" r="11"/><circle cx="105" cy="230" r="11"/><circle cx="105" cy="294" r="11"/></g><g font-family="monospace" font-size="11" fill="#fff"><text x="130" y="106">A</text><text x="130" y="170">B</text><text x="130" y="234">C</text><text x="130" y="298">D</text></g><g fill="none" stroke="url(#s)" stroke-width="3"><path d="M200 102h840"/><path d="M200 166h840"/><path d="M200 230h840"/><path d="M200 294h840"/></g><g fill="url(#m)" stroke="#b8dce0"><path d="M1040 76h92v52l-20 0-20-26 20-26z"/><path d="M1040 140h92v52l-20 0-20-26 20-26z"/><path d="M1040 204h92v52l-20 0-20-26 20-26z"/><path d="M1040 268h92v52l-20 0-20-26 20-26z"/></g></svg>