<svg xmlns="http://www.w3.org/2000/svg" width="420" height="125" viewBox="0 0 420 125"><defs><linearGradient id="coat" x1="0" y1="1" x2="1" y2="0"><stop stop-color="#29e9e0" stop-opacity=".25"><animate attributeName="stop-color" values="#29e9e0;#8c5cff;#ff4ba8;#29e9e0" dur="7s" repeatCount="indefinite"/></stop><stop offset=".48" stop-color="#111a26" stop-opacity=".58"/><stop offset="1" stop-color="#ff55bd" stop-opacity=".27"><animate attributeName="stop-color" values="#ff55bd;#ffc447;#38e9dc;#ff55bd" dur="7s" repeatCount="indefinite"/></stop></linearGradient><filter id="glow"><feGaussianBlur stdDeviation="2" result="b"/><feMerge><feMergeNode in="b"/><feMergeNode in="SourceGraphic"/></feMerge></filter><clipPath id="pane"><rect x="54" y="29" width="312" height="67" rx="4"/></clipPath></defs><rect x="2" y="2" width="416" height="121" rx="15" fill="#071015" stroke="#425c62"/><rect x="45" y="20" width="332" height="87" rx="8" fill="#0b151b" stroke="#78999d" stroke-width="2"/><rect x="51" y="26" width="316" height="70" rx="5" fill="url(#coat)" stroke="#d5eeee" stroke-width="2"/><path d="M57 96H367V101H52Z" fill="#8bb0b5" opacity=".28"/><path d="M367 27V96L373 102V23Z" fill="#4f6f76" opacity=".38"/><g clip-path="url(#pane)"><path d="M45 82L135 31H190L100 87Z" fill="#fff" opacity="0"><animate attributeName="transform" type="translate" values="-90 0;260 0" dur="7s" repeatCount="indefinite"/><animate attributeName="opacity" values="0;.11;.11;0" keyTimes="0;.12;.82;1" dur="7s" repeatCount="indefinite"/></path><path d="M80 82L178 67L270 56L350 42" fill="none" stroke="#fff" stroke-opacity=".10"/><path d="M80 82L178 67" stroke="#fff" stroke-width="3" stroke-dasharray="14 100" filter="url(#glow)"><animate attributeName="stroke-dashoffset" values="114;114;0;0" keyTimes="0;.05;.30;1" dur="7s" repeatCount="indefinite"/></path><path d="M178 67L270 56L350 42" stroke="#65fff1" stroke-width="3" stroke-dasharray="14 180" opacity="0" filter="url(#glow)"><animate attributeName="opacity" values="0;0;1;1;0" keyTimes="0;.29;.34;.84;1" dur="7s" repeatCount="indefinite"/><animate attributeName="stroke-dashoffset" values="194;194;0;0" keyTimes="0;.31;.80;1" dur="7s" repeatCount="indefinite"/><animate attributeName="stroke" values="#65fff1;#65fff1;#b965ff;#ff65b9;#65fff1" keyTimes="0;.3;.52;.76;1" dur="7s" repeatCount="indefinite"/></path><path d="M178 67L130 43" stroke="#ff6cc7" stroke-width="2" stroke-dasharray="10 55" opacity="0" filter="url(#glow)"><animate attributeName="opacity" values="0;0;.65;.65;0" keyTimes="0;.30;.35;.62;.72" dur="7s" repeatCount="indefinite"/><animate attributeName="stroke-dashoffset" values="65;65;0;0" keyTimes="0;.32;.60;1" dur="7s" repeatCount="indefinite"/></path><circle cx="178" cy="67" r="5" fill="#fff" opacity="0" filter="url(#glow)"><animate attributeName="opacity" values="0;0;1;.15;0" keyTimes="0;.29;.33;.42;.48" dur="7s" repeatCount="indefinite"/></circle></g><g fill="#d8eeee" opacity=".65"><circle cx="55" cy="30" r="3"/><circle cx="363" cy="30" r="3"/><circle cx="55" cy="93" r="3"/><circle cx="363" cy="93" r="3"/></g></svg>